<svg xmlns="http://www.w3.org/2000/svg" width="1050" height="460" viewBox="0 0 1050 460">
<rect width="100%" height="100%" fill="white"/>
<text x="525" y="30" text-anchor="middle" font-size="21" font-family="Arial" font-weight="700">Prefill Replicas Over Time</text>
<rect x="75" y="55" width="950" height="343" fill="#fcfcfd" stroke="#e7e9ef"/>
<line x1="75" y1="398.0" x2="1025" y2="398.0" stroke="#eceff4"/>
<text x="65" y="402.0" text-anchor="end" font-size="11" font-family="Arial" fill="#566">1</text>
<line x1="75" y1="55.0" x2="1025" y2="55.0" stroke="#eceff4"/>
<text x="65" y="59.0" text-anchor="end" font-size="11" font-family="Arial" fill="#566">2</text>
<line x1="75.0" y1="398" x2="75.0" y2="402" stroke="#6b7280"/>
<text x="75.0" y="417" text-anchor="middle" font-size="10" font-family="Arial" fill="#5b6270">0s</text>
<line x1="133.0" y1="398" x2="133.0" y2="402" stroke="#6b7280"/>
<text x="133.0" y="417" text-anchor="middle" font-size="10" font-family="Arial" fill="#5b6270">19s</text>
<line x1="194.1" y1="398" x2="194.1" y2="402" stroke="#6b7280"/>
<text x="194.1" y="417" text-anchor="middle" font-size="10" font-family="Arial" fill="#5b6270">39s</text>
<line x1="252.2" y1="398" x2="252.2" y2="402" stroke="#6b7280"/>
<text x="252.2" y="417" text-anchor="middle" font-size="10" font-family="Arial" fill="#5b6270">58s</text>
<line x1="313.3" y1="398" x2="313.3" y2="402" stroke="#6b7280"/>
<text x="313.3" y="417" text-anchor="middle" font-size="10" font-family="Arial" fill="#5b6270">78s</text>
<line x1="371.3" y1="398" x2="371.3" y2="402" stroke="#6b7280"/>
<text x="371.3" y="417" text-anchor="middle" font-size="10" font-family="Arial" fill="#5b6270">97s</text>
<line x1="432.4" y1="398" x2="432.4" y2="402" stroke="#6b7280"/>
<text x="432.4" y="417" text-anchor="middle" font-size="10" font-family="Arial" fill="#5b6270">117s</text>
<line x1="490.4" y1="398" x2="490.4" y2="402" stroke="#6b7280"/>
<text x="490.4" y="417" text-anchor="middle" font-size="10" font-family="Arial" fill="#5b6270">136s</text>
<line x1="551.5" y1="398" x2="551.5" y2="402" stroke="#6b7280"/>
<text x="551.5" y="417" text-anchor="middle" font-size="10" font-family="Arial" fill="#5b6270">156s</text>
<line x1="609.6" y1="398" x2="609.6" y2="402" stroke="#6b7280"/>
<text x="609.6" y="417" text-anchor="middle" font-size="10" font-family="Arial" fill="#5b6270">175s</text>
<line x1="667.6" y1="398" x2="667.6" y2="402" stroke="#6b7280"/>
<text x="667.6" y="417" text-anchor="middle" font-size="10" font-family="Arial" fill="#5b6270">194s</text>
<line x1="728.7" y1="398" x2="728.7" y2="402" stroke="#6b7280"/>
<text x="728.7" y="417" text-anchor="middle" font-size="10" font-family="Arial" fill="#5b6270">214s</text>
<line x1="786.7" y1="398" x2="786.7" y2="402" stroke="#6b7280"/>
<text x="786.7" y="417" text-anchor="middle" font-size="10" font-family="Arial" fill="#5b6270">233s</text>
<line x1="847.8" y1="398" x2="847.8" y2="402" stroke="#6b7280"/>
<text x="847.8" y="417" text-anchor="middle" font-size="10" font-family="Arial" fill="#5b6270">253s</text>
<line x1="905.9" y1="398" x2="905.9" y2="402" stroke="#6b7280"/>
<text x="905.9" y="417" text-anchor="middle" font-size="10" font-family="Arial" fill="#5b6270">272s</text>
<line x1="967.0" y1="398" x2="967.0" y2="402" stroke="#6b7280"/>
<text x="967.0" y="417" text-anchor="middle" font-size="10" font-family="Arial" fill="#5b6270">292s</text>
<line x1="1025.0" y1="398" x2="1025.0" y2="402" stroke="#6b7280"/>
<text x="1025.0" y="417" text-anchor="middle" font-size="10" font-family="Arial" fill="#5b6270">311s</text>
<line x1="75" y1="398" x2="1025" y2="398" stroke="#374151"/>
<line x1="75" y1="55" x2="75" y2="398" stroke="#374151"/>
<polyline points="75.0,398.0 99.4,398.0 123.9,55.0 148.3,55.0 172.7,55.0 200.2,55.0 224.7,55.0 249.1,55.0 273.6,55.0 298.0,55.0 325.5,55.0 349.9,55.0 374.4,55.0 398.8,55.0 423.2,55.0 450.7,55.0 475.2,55.0 499.6,398.0 524.0,398.0 551.5,398.0 576.0,398.0 600.4,398.0 624.8,398.0 649.3,398.0 676.8,398.0 701.2,398.0 725.6,398.0 750.1,398.0 774.5,398.0 802.0,398.0 826.4,398.0 850.9,398.0 875.3,398.0 899.8,398.0 927.3,398.0 951.7,398.0 976.1,398.0 1000.6,398.0 1025.0,398.0" fill="none" stroke="#c53030" stroke-width="2.8"/>
<polyline points="75.0,398.0 99.4,398.0 123.9,398.0 148.3,398.0 172.7,398.0 200.2,398.0 224.7,398.0 249.1,55.0 273.6,55.0 298.0,55.0 325.5,55.0 349.9,55.0 374.4,55.0 398.8,55.0 423.2,55.0 450.7,55.0 475.2,55.0 499.6,398.0 524.0,398.0 551.5,398.0 576.0,398.0 600.4,398.0 624.8,398.0 649.3,398.0 676.8,398.0 701.2,398.0 725.6,398.0 750.1,398.0 774.5,398.0 802.0,398.0 826.4,398.0 850.9,398.0 875.3,398.0 899.8,398.0 927.3,398.0 951.7,398.0 976.1,398.0 1000.6,398.0 1025.0,398.0" fill="none" stroke="#059669" stroke-width="2.4"/>
<circle cx="75.0" cy="398.0" r="3.8" fill="#c53030"/>
<circle cx="123.9" cy="55.0" r="3.8" fill="#c53030"/>
<circle cx="499.6" cy="398.0" r="3.8" fill="#c53030"/>
<line x1="790" y1="75" x2="812" y2="75" stroke="#c53030" stroke-width="2.8"/><text x="820" y="79" font-size="12" font-family="Arial">spec</text>
<line x1="790" y1="93" x2="812" y2="93" stroke="#059669" stroke-width="2.4"/><text x="820" y="97" font-size="12" font-family="Arial">ready/available</text>
<text x="550.0" y="442" text-anchor="middle" font-size="12" font-family="Arial">Time since trace start</text>
<text x="20" y="226.5" transform="rotate(-90 20,226.5)" text-anchor="middle" font-size="12" font-family="Arial">Replicas</text>
</svg>